<svg width="88" height="89" viewBox="0 0 88 89" fill="none" xmlns="http://www.w3.org/2000/svg">
<path d="M25.0323 23.1414C24.3723 24.1861 23.4917 25.0737 22.4522 25.742C21.4128 26.4102 20.2397 26.8429 19.0153 27.0098C17.622 27.2078 16.2397 27.4204 14.8573 27.6514C10.9963 28.2931 8.25 31.6921 8.25 35.6044V66.4998C8.25 68.6878 9.11919 70.7862 10.6664 72.3334C12.2135 73.8806 14.312 74.7498 16.5 74.7498H71.5C73.688 74.7498 75.7865 73.8806 77.3336 72.3334C78.8808 70.7862 79.75 68.6878 79.75 66.4998V35.6044C79.75 31.6921 77 28.2931 73.1427 27.6514C71.7593 27.4209 70.3732 27.207 68.9847 27.0098C67.7609 26.8424 66.5886 26.4095 65.5498 25.7412C64.511 25.073 63.631 24.1857 62.9713 23.1414L59.9573 18.3161C59.2804 17.2165 58.3485 16.2961 57.2405 15.633C56.1325 14.9698 54.881 14.5834 53.592 14.5064C47.2019 14.1632 40.7981 14.1632 34.408 14.5064C33.119 14.5834 31.8675 14.9698 30.7595 15.633C29.6515 16.2961 28.7196 17.2165 28.0427 18.3161L25.0323 23.1414Z" stroke="#1D2939" stroke-width="1.5" stroke-linecap="round" stroke-linejoin="round"/>
<path d="M60.5 47.25C60.5 51.6261 58.7616 55.8229 55.6673 58.9173C52.5729 62.0116 48.3761 63.75 44 63.75C39.6239 63.75 35.4271 62.0116 32.3327 58.9173C29.2384 55.8229 27.5 51.6261 27.5 47.25C27.5 42.8739 29.2384 38.6771 32.3327 35.5827C35.4271 32.4884 39.6239 30.75 44 30.75C48.3761 30.75 52.5729 32.4884 55.6673 35.5827C58.7616 38.6771 60.5 42.8739 60.5 47.25ZM68.75 39H68.7793V39.0293H68.75V39Z" stroke="#1D2939" stroke-width="1.5" stroke-linecap="round" stroke-linejoin="round"/>
</svg>
