<svg width="88" height="89" viewBox="0 0 88 89" fill="none" xmlns="http://www.w3.org/2000/svg">
<path d="M8.25 58.25L27.1663 39.3337C27.9324 38.5676 28.8419 37.9599 29.8428 37.5453C30.8438 37.1307 31.9166 36.9173 33 36.9173C34.0834 36.9173 35.1562 37.1307 36.1572 37.5453C37.1581 37.9599 38.0676 38.5676 38.8337 39.3337L57.75 58.25M52.25 52.75L57.4163 47.5837C58.1824 46.8176 59.0919 46.2099 60.0928 45.7953C61.0938 45.3807 62.1666 45.1673 63.25 45.1673C64.3334 45.1673 65.4062 45.3807 66.4072 45.7953C67.4081 46.2099 68.3176 46.8176 69.0837 47.5837L79.75 58.25M13.75 72H74.25C75.7087 72 77.1076 71.4205 78.1391 70.3891C79.1705 69.3576 79.75 67.9587 79.75 66.5V22.5C79.75 21.0413 79.1705 19.6424 78.1391 18.6109C77.1076 17.5795 75.7087 17 74.25 17H13.75C12.2913 17 10.8924 17.5795 9.86091 18.6109C8.82946 19.6424 8.25 21.0413 8.25 22.5V66.5C8.25 67.9587 8.82946 69.3576 9.86091 70.3891C10.8924 71.4205 12.2913 72 13.75 72ZM52.25 30.75H52.2793V30.7793H52.25V30.75ZM53.625 30.75C53.625 31.1147 53.4801 31.4644 53.2223 31.7223C52.9644 31.9801 52.6147 32.125 52.25 32.125C51.8853 32.125 51.5356 31.9801 51.2777 31.7223C51.0199 31.4644 50.875 31.1147 50.875 30.75C50.875 30.3853 51.0199 30.0356 51.2777 29.7777C51.5356 29.5199 51.8853 29.375 52.25 29.375C52.6147 29.375 52.9644 29.5199 53.2223 29.7777C53.4801 30.0356 53.625 30.3853 53.625 30.75Z" stroke="#1D2939" stroke-width="1.5" stroke-linecap="round" stroke-linejoin="round"/>
</svg>
