<svg width="24" height="24" viewBox="0 0 24 24" fill="none" xmlns="http://www.w3.org/2000/svg">
<path d="M4 6.25C4 5.65326 4.23705 5.08097 4.65901 4.65901C5.08097 4.23705 5.65326 4 6.25 4H8.5C9.09674 4 9.66903 4.23705 10.091 4.65901C10.5129 5.08097 10.75 5.65326 10.75 6.25V8.5C10.75 9.09674 10.5129 9.66903 10.091 10.091C9.66903 10.5129 9.09674 10.75 8.5 10.75H6.25C5.65326 10.75 5.08097 10.5129 4.65901 10.091C4.23705 9.66903 4 9.09674 4 8.5V6.25ZM4 16C4 15.4033 4.23705 14.831 4.65901 14.409C5.08097 13.9871 5.65326 13.75 6.25 13.75H8.5C9.09674 13.75 9.66903 13.9871 10.091 14.409C10.5129 14.831 10.75 15.4033 10.75 16V18.25C10.75 18.8467 10.5129 19.419 10.091 19.841C9.66903 20.2629 9.09674 20.5 8.5 20.5H6.25C5.65326 20.5 5.08097 20.2629 4.65901 19.841C4.23705 19.419 4 18.8467 4 18.25V16ZM13.75 6.25C13.75 5.65326 13.9871 5.08097 14.409 4.65901C14.831 4.23705 15.4033 4 16 4H18.25C18.8467 4 19.419 4.23705 19.841 4.65901C20.2629 5.08097 20.5 5.65326 20.5 6.25V8.5C20.5 9.09674 20.2629 9.66903 19.841 10.091C19.419 10.5129 18.8467 10.75 18.25 10.75H16C15.4033 10.75 14.831 10.5129 14.409 10.091C13.9871 9.66903 13.75 9.09674 13.75 8.5V6.25ZM13.75 16C13.75 15.4033 13.9871 14.831 14.409 14.409C14.831 13.9871 15.4033 13.75 16 13.75H18.25C18.8467 13.75 19.419 13.9871 19.841 14.409C20.2629 14.831 20.5 15.4033 20.5 16V18.25C20.5 18.8467 20.2629 19.419 19.841 19.841C19.419 20.2629 18.8467 20.5 18.25 20.5H16C15.4033 20.5 14.831 20.2629 14.409 19.841C13.9871 19.419 13.75 18.8467 13.75 18.25V16Z" stroke="black" stroke-width="1.5" stroke-linecap="round" stroke-linejoin="round"/>
</svg>
