<svg width="72" height="72" viewBox="0 0 72 72" fill="none" xmlns="http://www.w3.org/2000/svg">
<rect x="32.4" y="3.6001" width="7.2" height="21.6" rx="3.6" fill="#E1E1E1"/>
<rect x="56.3647" y="10.5442" width="7.2" height="21.6" rx="3.6" transform="rotate(45 56.3647 10.5442)" fill="#E1E1E1"/>
<rect x="68.4" y="32.3999" width="7.2" height="21.6" rx="3.6" transform="rotate(90 68.4 32.3999)" fill="#E1E1E1"/>
<rect x="61.4558" y="56.3647" width="7.2" height="21.6" rx="3.6" transform="rotate(135 61.4558 56.3647)" fill="#E1E1E1"/>
<rect x="39.6" y="68.3999" width="7.2" height="21.6" rx="3.6" transform="rotate(-180 39.6 68.3999)" fill="#E1E1E1"/>
<rect x="15.6353" y="61.4561" width="7.2" height="21.6" rx="3.6" transform="rotate(-135 15.6353 61.4561)" fill="#E1E1E1"/>
<rect x="3.59998" y="39.6001" width="7.2" height="21.6" rx="3.6" transform="rotate(-90 3.59998 39.6001)" fill="#E1E1E1"/>
<rect x="10.5442" y="15.6353" width="7.2" height="21.6" rx="3.6" transform="rotate(-45 10.5442 15.6353)" fill="#E1E1E1"/>
</svg>
