<svg width="18" height="19" viewBox="0 0 18 19" fill="none" xmlns="http://www.w3.org/2000/svg">
<path d="M8.99968 2.57887e-07C10.1762 -0.000359632 11.3219 0.375969 12.2685 1.07375C13.2152 1.77153 13.9129 2.75401 14.2594 3.877C14.6059 4.99998 14.5828 6.20432 14.1936 7.31324C13.8044 8.42217 13.0695 9.37728 12.0968 10.0384C13.7851 10.6569 15.2494 11.7658 16.3013 13.2226C17.3532 14.6793 17.9444 16.4172 17.999 18.2124C18.0041 18.312 17.9892 18.4117 17.9553 18.5055C17.9213 18.5993 17.8689 18.6855 17.8011 18.7588C17.7334 18.8321 17.6517 18.8912 17.5608 18.9326C17.4699 18.9739 17.3716 18.9968 17.2717 18.9997C17.1719 19.0026 17.0724 18.9856 16.9793 18.9496C16.8861 18.9136 16.801 18.8595 16.7291 18.7902C16.6572 18.721 16.5998 18.6381 16.5604 18.5464C16.5209 18.4547 16.5002 18.3561 16.4995 18.2563C16.4399 16.3095 15.6237 14.4623 14.2238 13.1062C12.8239 11.7501 10.9504 10.9917 9.00018 10.9917C7.05 10.9917 5.17645 11.7501 3.77657 13.1062C2.37668 14.4623 1.56047 16.3095 1.5009 18.2563C1.49493 18.4551 1.41015 18.6433 1.26523 18.7796C1.1203 18.916 0.927094 18.9892 0.728108 18.9832C0.529122 18.9773 0.340657 18.8926 0.204174 18.7478C0.0676904 18.6031 -0.00563165 18.4101 0.000337937 18.2114C0.0551064 16.4163 0.646473 14.6787 1.69833 13.2222C2.75019 11.7656 4.2144 10.6568 5.90253 10.0384C4.92986 9.37728 4.19498 8.42217 3.80575 7.31324C3.41653 6.20432 3.39346 4.99998 3.73994 3.877C4.08641 2.75401 4.78418 1.77153 5.73083 1.07375C6.67747 0.375969 7.82314 -0.000359632 8.99968 2.57887e-07ZM4.99819 5.49529C4.99819 6.55524 5.41978 7.57179 6.1702 8.32129C6.92063 9.07079 7.93842 9.49186 8.99968 9.49186C10.0609 9.49186 11.0787 9.07079 11.8292 8.32129C12.5796 7.57179 13.0012 6.55524 13.0012 5.49529C13.0012 4.43533 12.5796 3.41879 11.8292 2.66928C11.0787 1.91978 10.0609 1.49871 8.99968 1.49871C7.93842 1.49871 6.92063 1.91978 6.1702 2.66928C5.41978 3.41879 4.99819 4.43533 4.99819 5.49529Z" fill="black"/>
</svg>
