<svg width="24" height="24" viewBox="0 0 24 24" fill="none" xmlns="http://www.w3.org/2000/svg">
<path d="M3 7.15385C3 14.8006 9.19938 21 16.8462 21H18.9231C19.4739 21 20.0022 20.7812 20.3917 20.3917C20.7812 20.0022 21 19.4739 21 18.9231V17.6566C21 17.1803 20.676 16.7649 20.2135 16.6495L16.1308 15.6286C15.7246 15.5271 15.2982 15.6794 15.048 16.0135L14.1526 17.2071C13.8923 17.5542 13.4428 17.7074 13.0357 17.5578C11.5245 17.0023 10.1521 16.1249 9.01364 14.9864C7.87515 13.8479 6.99773 12.4755 6.44215 10.9643C6.29262 10.5572 6.44585 10.1077 6.79292 9.84738L7.98646 8.952C8.32154 8.70185 8.47292 8.27446 8.37138 7.86923L7.35046 3.78646C7.29428 3.56187 7.16467 3.3625 6.9822 3.22C6.79974 3.07751 6.57489 3.00008 6.34338 3H5.07692C4.52609 3 3.99782 3.21882 3.60832 3.60832C3.21882 3.99782 3 4.52609 3 5.07692V7.15385Z" stroke="black" stroke-width="1.5" stroke-linecap="round" stroke-linejoin="round"/>
</svg>
